<svg id="svg" version="1.1" xmlns="http://www.w3.org/2000/svg" xmlns:xlink="http://www.w3.org/1999/xlink" width="400" height="400" viewBox="0, 0, 400,400"><g id="svgg"><path id="path0" d="M144.000 152.400 C 144.000 152.620,143.810 152.800,143.579 152.800 C 143.035 152.800,140.087 154.796,140.607 154.812 C 140.823 154.819,140.685 155.008,140.300 155.232 C 139.915 155.456,139.600 155.901,139.600 156.220 C 139.600 156.539,139.420 156.800,139.200 156.800 C 138.980 156.800,138.800 157.160,138.800 157.600 C 138.800 158.040,138.620 158.400,138.400 158.400 C 138.180 158.400,138.000 158.951,138.000 159.624 C 138.000 160.337,137.833 160.744,137.600 160.600 C 137.380 160.464,137.200 160.713,137.200 161.153 C 137.200 161.593,137.020 162.064,136.800 162.200 C 136.580 162.336,136.400 162.799,136.400 163.229 C 136.400 163.659,136.220 164.368,136.000 164.805 C 135.780 165.242,135.420 165.958,135.200 166.395 C 134.980 166.832,134.800 167.562,134.800 168.018 C 134.800 168.474,134.658 168.760,134.485 168.652 C 134.312 168.545,134.131 168.930,134.083 169.506 C 134.035 170.083,133.818 170.665,133.600 170.800 C 133.382 170.935,133.164 171.530,133.115 172.122 C 133.066 172.715,132.885 173.200,132.713 173.200 C 132.541 173.200,132.400 173.560,132.400 174.000 C 132.400 174.440,132.220 174.800,132.000 174.800 C 131.780 174.800,131.600 175.214,131.600 175.720 C 131.600 176.226,131.451 176.811,131.270 177.020 C 131.088 177.229,130.699 178.165,130.406 179.100 C 130.112 180.035,129.721 180.800,129.536 180.800 C 129.351 180.800,129.200 181.245,129.200 181.788 C 129.200 182.331,128.840 183.417,128.400 184.200 C 127.960 184.983,127.600 185.979,127.600 186.412 C 127.600 186.845,127.420 187.200,127.200 187.200 C 126.980 187.200,126.800 187.740,126.800 188.400 C 126.800 189.060,126.663 189.600,126.495 189.600 C 126.327 189.600,125.652 191.309,124.995 193.399 C 124.338 195.488,123.665 197.198,123.500 197.199 C 123.335 197.199,123.200 197.740,123.200 198.400 C 123.200 199.060,123.020 199.600,122.800 199.600 C 122.580 199.600,122.400 199.960,122.400 200.400 C 122.400 200.840,122.220 201.200,122.000 201.200 C 121.780 201.200,121.600 201.740,121.600 202.400 C 121.600 203.060,121.420 203.600,121.200 203.600 C 120.980 203.600,120.800 203.949,120.800 204.376 C 120.800 204.803,120.620 205.264,120.400 205.400 C 120.180 205.536,120.000 206.076,120.000 206.600 C 120.000 207.124,119.820 207.664,119.600 207.800 C 119.380 207.936,119.200 208.497,119.200 209.047 C 119.200 209.612,119.026 209.940,118.800 209.800 C 118.566 209.655,118.400 210.070,118.400 210.800 C 118.400 211.530,118.234 211.945,118.000 211.800 C 117.773 211.660,117.600 211.996,117.600 212.576 C 117.600 213.139,117.420 213.600,117.200 213.600 C 116.980 213.600,116.800 214.140,116.800 214.800 C 116.800 215.460,116.620 216.000,116.400 216.000 C 116.180 216.000,116.000 216.360,116.000 216.800 C 116.000 217.240,115.820 217.600,115.600 217.600 C 115.380 217.600,115.200 218.140,115.200 218.800 C 115.200 219.460,115.064 220.000,114.897 220.000 C 114.561 220.000,113.600 222.829,113.600 223.817 C 113.600 224.192,113.413 224.331,113.138 224.162 C 112.882 224.004,112.784 224.050,112.918 224.267 C 113.050 224.482,112.890 225.176,112.561 225.811 C 111.914 227.056,111.822 233.357,112.456 232.965 C 112.645 232.848,112.800 233.037,112.800 233.385 C 112.800 234.306,114.812 237.200,115.453 237.200 C 115.754 237.200,116.000 237.336,116.000 237.502 C 116.000 238.593,124.532 239.402,125.204 238.375 C 125.316 238.204,125.666 238.005,125.982 237.932 C 126.851 237.732,129.200 235.310,129.200 234.613 C 129.200 234.276,129.380 234.000,129.600 234.000 C 129.820 234.000,130.000 233.640,130.000 233.200 C 130.000 232.760,130.180 232.400,130.400 232.400 C 130.620 232.400,130.800 231.860,130.800 231.200 C 130.800 230.540,130.980 230.000,131.200 230.000 C 131.420 230.000,131.600 229.640,131.600 229.200 C 131.600 228.760,131.741 228.400,131.913 228.400 C 132.085 228.400,132.266 227.905,132.316 227.300 C 132.366 226.695,132.585 226.140,132.803 226.067 C 133.022 225.993,133.200 225.588,133.200 225.167 C 133.200 224.425,133.687 224.400,148.400 224.400 C 163.333 224.400,163.600 224.414,163.600 225.200 C 163.600 225.640,163.780 226.000,164.000 226.000 C 164.220 226.000,164.400 226.439,164.400 226.976 C 164.400 227.513,164.580 228.064,164.800 228.200 C 165.020 228.336,165.200 228.797,165.200 229.224 C 165.200 229.651,165.380 230.000,165.600 230.000 C 165.820 230.000,166.000 230.450,166.000 231.000 C 166.000 231.550,166.180 232.000,166.400 232.000 C 166.620 232.000,166.800 232.450,166.800 233.000 C 166.800 233.550,166.980 234.000,167.200 234.000 C 167.420 234.000,167.600 234.276,167.600 234.613 C 167.600 235.310,169.949 237.732,170.818 237.932 C 171.134 238.005,171.484 238.203,171.596 238.373 C 172.245 239.358,180.800 238.564,180.800 237.520 C 180.800 237.344,181.076 237.200,181.413 237.200 C 181.749 237.200,182.142 236.885,182.285 236.500 C 182.428 236.115,182.872 235.509,183.272 235.153 C 183.673 234.797,184.000 234.212,184.000 233.853 C 184.000 233.494,184.180 233.200,184.400 233.200 C 184.635 233.200,184.800 231.808,184.800 229.824 C 184.800 227.967,184.620 226.336,184.400 226.200 C 184.180 226.064,184.000 225.513,184.000 224.976 C 184.000 224.439,183.820 224.000,183.600 224.000 C 183.380 224.000,183.200 223.640,183.200 223.200 C 183.200 222.760,183.059 222.400,182.887 222.400 C 182.715 222.400,182.534 221.905,182.484 221.300 C 182.434 220.695,182.215 220.140,181.997 220.067 C 181.778 219.993,181.600 219.408,181.600 218.767 C 181.600 218.125,181.420 217.600,181.200 217.600 C 180.980 217.600,180.800 217.251,180.800 216.824 C 180.800 216.397,180.620 215.936,180.400 215.800 C 180.180 215.664,180.000 215.113,180.000 214.576 C 180.000 214.039,179.853 213.600,179.672 213.600 C 179.492 213.600,179.100 212.700,178.800 211.600 C 178.500 210.500,178.108 209.600,177.928 209.600 C 177.747 209.600,177.600 209.150,177.600 208.600 C 177.600 208.050,177.420 207.600,177.200 207.600 C 176.980 207.600,176.800 207.161,176.800 206.624 C 176.800 206.087,176.620 205.536,176.400 205.400 C 176.180 205.264,176.000 204.803,176.000 204.376 C 176.000 203.949,175.820 203.600,175.600 203.600 C 175.380 203.600,175.200 203.060,175.200 202.400 C 175.200 201.740,175.009 201.200,174.776 201.200 C 174.543 201.200,174.464 201.020,174.600 200.800 C 174.736 200.580,174.707 200.175,174.535 199.900 C 174.364 199.625,174.168 199.044,174.100 198.609 C 174.032 198.173,173.802 197.642,173.589 197.429 C 173.375 197.215,173.200 196.637,173.200 196.144 C 173.200 195.651,173.020 195.136,172.800 195.000 C 172.580 194.864,172.400 194.403,172.400 193.976 C 172.400 193.549,172.220 193.200,172.000 193.200 C 171.780 193.200,171.600 192.851,171.600 192.424 C 171.600 191.997,171.420 191.536,171.200 191.400 C 170.980 191.264,170.800 190.623,170.800 189.976 C 170.800 189.329,170.653 188.800,170.472 188.800 C 170.292 188.800,169.900 187.900,169.600 186.800 C 169.300 185.700,168.908 184.800,168.728 184.800 C 168.547 184.800,168.400 184.249,168.400 183.576 C 168.400 182.863,168.233 182.456,168.000 182.600 C 167.774 182.740,167.600 182.412,167.600 181.847 C 167.600 181.297,167.420 180.736,167.200 180.600 C 166.980 180.464,166.800 179.913,166.800 179.376 C 166.800 178.839,166.620 178.400,166.400 178.400 C 166.180 178.400,166.000 177.939,166.000 177.376 C 166.000 176.796,165.827 176.460,165.600 176.600 C 165.367 176.744,165.200 176.345,165.200 175.647 C 165.200 174.987,165.020 174.336,164.800 174.200 C 164.580 174.064,164.400 173.603,164.400 173.176 C 164.400 172.749,164.220 172.400,164.000 172.400 C 163.780 172.400,163.600 171.860,163.600 171.200 C 163.600 170.540,163.420 170.000,163.200 170.000 C 162.980 170.000,162.800 169.728,162.800 169.395 C 162.800 168.807,162.633 168.382,161.662 166.505 C 161.408 166.013,161.200 165.338,161.200 165.005 C 161.200 164.672,161.009 164.400,160.776 164.400 C 160.543 164.400,160.444 164.252,160.556 164.071 C 160.668 163.891,160.498 163.240,160.180 162.626 C 159.861 162.011,159.600 161.280,159.600 161.000 C 159.600 160.720,159.339 159.989,159.020 159.374 C 158.702 158.760,158.550 158.082,158.682 157.867 C 158.815 157.652,158.754 157.581,158.547 157.709 C 158.339 157.837,157.926 157.370,157.628 156.671 C 156.960 155.103,155.639 153.600,154.930 153.600 C 154.639 153.600,154.400 153.420,154.400 153.200 C 154.400 152.980,154.040 152.800,153.600 152.800 C 153.160 152.800,152.800 152.620,152.800 152.400 C 152.800 152.158,151.067 152.000,148.400 152.000 C 145.733 152.000,144.000 152.158,144.000 152.400 M206.000 152.381 C 206.000 152.611,205.724 152.800,205.387 152.800 C 205.049 152.800,204.149 153.424,203.387 154.187 C 202.624 154.949,202.000 155.849,202.000 156.187 C 202.000 156.524,201.820 156.800,201.600 156.800 C 201.380 156.800,201.200 157.149,201.200 157.576 C 201.200 158.003,201.020 158.464,200.800 158.600 C 200.538 158.762,200.400 171.396,200.400 195.200 C 200.400 219.004,200.538 231.638,200.800 231.800 C 201.020 231.936,201.200 232.487,201.200 233.024 C 201.200 233.561,201.380 234.000,201.600 234.000 C 201.820 234.000,202.000 234.273,202.000 234.607 C 202.000 235.272,204.398 237.721,205.256 237.932 C 205.551 238.005,205.884 238.205,205.996 238.377 C 206.320 238.874,213.084 238.911,213.389 238.417 C 213.536 238.181,213.810 238.083,214.000 238.200 C 214.190 238.317,214.465 238.219,214.611 237.982 C 214.758 237.745,215.310 237.386,215.839 237.185 C 216.367 236.984,216.800 236.585,216.800 236.298 C 216.800 236.011,217.160 235.517,217.600 235.200 C 218.040 234.883,218.400 234.314,218.400 233.935 C 218.400 233.557,218.580 233.136,218.800 233.000 C 219.062 232.838,219.200 219.870,219.200 195.400 C 219.200 170.930,219.062 157.962,218.800 157.800 C 218.580 157.664,218.400 157.203,218.400 156.776 C 218.400 156.349,218.264 156.000,218.098 156.000 C 217.931 156.000,217.556 155.459,217.263 154.798 C 216.970 154.136,216.581 153.688,216.398 153.801 C 216.214 153.915,215.793 153.736,215.461 153.404 C 215.129 153.072,214.654 152.800,214.405 152.800 C 214.156 152.800,214.051 152.641,214.171 152.448 C 214.290 152.254,212.501 152.065,210.194 152.028 C 207.494 151.985,206.000 152.111,206.000 152.381 M148.800 185.976 C 148.800 186.403,148.980 186.864,149.200 187.000 C 149.420 187.136,149.600 187.597,149.600 188.024 C 149.600 188.451,149.780 188.800,150.000 188.800 C 150.220 188.800,150.400 189.235,150.400 189.767 C 150.400 190.298,150.578 190.793,150.797 190.867 C 151.015 190.940,151.234 191.495,151.284 192.100 C 151.334 192.705,151.515 193.200,151.687 193.200 C 151.859 193.200,152.000 193.560,152.000 194.000 C 152.000 194.440,152.180 194.800,152.400 194.800 C 152.620 194.800,152.800 195.239,152.800 195.776 C 152.800 196.313,152.980 196.864,153.200 197.000 C 153.420 197.136,153.600 197.676,153.600 198.200 C 153.600 198.724,153.780 199.264,154.000 199.400 C 154.220 199.536,154.400 199.997,154.400 200.424 C 154.400 200.851,154.580 201.200,154.800 201.200 C 155.020 201.200,155.200 201.751,155.200 202.424 C 155.200 203.137,155.367 203.544,155.600 203.400 C 155.832 203.256,156.000 203.651,156.000 204.343 C 156.000 204.998,156.225 205.624,156.500 205.735 C 156.775 205.846,153.341 205.951,148.868 205.968 L 140.736 206.000 141.014 204.700 C 141.166 203.985,141.541 202.793,141.846 202.051 C 142.151 201.309,142.400 200.364,142.400 199.951 C 142.400 199.538,142.580 199.200,142.800 199.200 C 143.020 199.200,143.200 198.750,143.200 198.200 C 143.200 197.650,143.380 197.200,143.600 197.200 C 143.820 197.200,144.000 196.840,144.000 196.400 C 144.000 195.960,144.180 195.600,144.400 195.600 C 144.620 195.600,144.800 195.060,144.800 194.400 C 144.800 193.740,144.980 193.200,145.200 193.200 C 145.420 193.200,145.600 192.750,145.600 192.200 C 145.600 191.650,145.747 191.200,145.928 191.200 C 146.108 191.200,146.504 190.289,146.807 189.175 C 147.110 188.061,147.503 187.060,147.679 186.951 C 147.856 186.842,148.000 186.403,148.000 185.976 C 148.000 185.549,148.180 185.200,148.400 185.200 C 148.620 185.200,148.800 185.549,148.800 185.976 M287.600 245.182 C 287.270 245.380,284.300 245.744,281.000 245.989 C 277.700 246.235,274.058 246.620,272.906 246.845 C 270.693 247.278,270.000 247.118,270.000 246.176 C 270.000 245.522,268.975 245.393,268.600 246.000 C 268.464 246.220,267.463 246.400,266.376 246.400 C 265.289 246.400,264.400 246.580,264.400 246.800 C 264.400 247.020,263.758 247.200,262.974 247.200 C 262.189 247.200,261.219 247.376,260.818 247.590 C 260.417 247.805,259.529 248.023,258.845 248.075 C 258.160 248.127,257.600 248.312,257.600 248.485 C 257.600 248.658,256.970 248.800,256.200 248.800 C 255.430 248.800,254.800 248.980,254.800 249.200 C 254.800 249.420,254.271 249.600,253.624 249.600 C 252.977 249.600,252.336 249.780,252.200 250.000 C 252.064 250.220,251.423 250.400,250.776 250.400 C 250.129 250.400,249.600 250.580,249.600 250.800 C 249.600 251.020,249.060 251.200,248.400 251.200 C 247.740 251.200,247.200 251.357,247.200 251.548 C 247.200 251.739,246.345 252.131,245.300 252.418 C 244.255 252.706,243.294 253.098,243.164 253.290 C 243.034 253.483,242.539 253.669,242.064 253.705 C 241.589 253.741,241.200 253.912,241.200 254.085 C 241.200 254.258,240.840 254.400,240.400 254.400 C 239.960 254.400,239.600 254.580,239.600 254.800 C 239.600 255.020,239.240 255.200,238.800 255.200 C 238.360 255.200,238.000 255.380,238.000 255.600 C 238.000 255.820,237.657 256.000,237.238 256.000 C 236.422 256.000,233.088 257.601,232.867 258.100 C 232.793 258.265,232.478 258.400,232.167 258.400 C 231.855 258.400,231.600 258.588,231.600 258.818 C 231.600 259.047,231.375 259.198,231.100 259.153 C 229.943 258.964,228.294 259.990,228.791 260.589 C 229.286 261.185,229.042 262.000,228.368 262.000 C 228.011 262.000,227.351 262.388,223.000 265.152 C 220.866 266.509,212.358 272.798,211.599 273.581 C 209.460 275.787,205.994 278.341,204.976 278.461 C 203.797 278.600,201.166 280.737,201.480 281.300 C 201.572 281.465,201.367 281.600,201.024 281.600 C 200.681 281.600,200.400 281.838,200.400 282.130 C 200.400 282.421,199.146 283.951,197.614 285.530 C 196.081 287.108,194.919 288.400,195.030 288.400 C 195.253 288.400,194.755 289.043,193.100 290.890 C 192.495 291.566,192.000 292.373,192.000 292.683 C 192.000 292.993,191.820 293.136,191.600 293.000 C 191.380 292.864,191.200 293.033,191.200 293.376 C 191.200 293.719,191.020 294.000,190.800 294.000 C 190.580 294.000,190.400 294.281,190.400 294.624 C 190.400 294.967,190.220 295.136,190.000 295.000 C 189.780 294.864,189.600 295.123,189.600 295.576 C 189.600 296.029,189.450 296.400,189.268 296.400 C 189.085 296.400,188.680 296.895,188.368 297.500 C 188.055 298.105,187.485 298.949,187.100 299.375 C 186.715 299.802,186.400 300.387,186.400 300.675 C 186.400 300.964,186.220 301.200,186.000 301.200 C 185.780 301.200,185.600 301.470,185.600 301.800 C 185.600 302.130,185.420 302.400,185.200 302.400 C 184.980 302.400,184.800 302.670,184.800 303.000 C 184.800 303.330,184.575 303.606,184.300 303.613 C 183.992 303.621,184.067 303.828,184.493 304.152 C 185.133 304.638,184.948 305.155,182.092 310.839 C 178.367 318.256,177.600 320.008,177.600 321.107 C 177.600 321.598,177.264 322.053,176.792 322.203 C 175.918 322.480,175.882 323.982,176.700 326.000 C 176.924 326.550,177.027 327.135,176.929 327.300 C 176.832 327.465,176.943 327.600,177.176 327.600 C 177.409 327.600,177.600 327.960,177.600 328.400 C 177.600 328.840,177.780 329.200,178.000 329.200 C 178.220 329.200,178.400 329.560,178.400 330.000 C 178.400 330.440,178.542 330.800,178.715 330.800 C 178.888 330.800,179.058 331.180,179.093 331.645 C 179.128 332.109,179.437 332.799,179.779 333.177 C 180.122 333.555,180.281 333.985,180.134 334.132 C 179.987 334.280,180.077 334.400,180.333 334.400 C 180.590 334.400,180.804 334.715,180.809 335.100 C 180.814 335.485,181.170 336.250,181.600 336.800 C 182.030 337.350,182.386 338.025,182.391 338.300 C 182.396 338.575,182.580 338.800,182.800 338.800 C 183.020 338.800,183.200 339.070,183.200 339.400 C 183.200 339.730,183.380 340.000,183.600 340.000 C 183.820 340.000,184.000 340.345,184.000 340.767 C 184.000 341.188,184.167 341.593,184.370 341.667 C 184.574 341.740,184.799 342.070,184.870 342.400 C 184.942 342.730,185.315 343.291,185.700 343.647 C 186.085 344.003,186.400 344.548,186.400 344.859 C 186.400 345.169,186.760 345.683,187.200 346.000 C 187.640 346.317,188.000 346.773,188.000 347.013 C 188.000 347.253,188.315 347.798,188.700 348.225 C 189.085 348.651,189.655 349.495,189.968 350.100 C 190.280 350.705,190.685 351.200,190.868 351.200 C 191.050 351.200,191.200 351.404,191.200 351.653 C 191.200 351.902,191.572 352.429,192.026 352.823 C 192.481 353.217,192.861 353.688,192.872 353.870 C 192.898 354.320,195.042 356.949,197.072 359.018 C 197.991 359.956,198.651 360.816,198.538 360.929 C 198.424 361.042,198.722 361.344,199.200 361.600 C 199.678 361.856,199.972 362.162,199.853 362.280 C 199.557 362.577,200.630 363.600,201.238 363.600 C 201.510 363.600,201.639 363.694,201.524 363.809 C 201.409 363.924,202.755 365.458,204.515 367.218 C 206.275 368.978,207.785 370.348,207.871 370.263 C 207.956 370.177,208.785 370.861,209.713 371.782 C 210.641 372.703,212.030 373.889,212.800 374.417 C 213.570 374.946,214.549 375.698,214.975 376.089 C 215.402 376.480,215.922 376.800,216.132 376.800 C 216.342 376.800,217.029 377.340,217.660 378.000 C 218.291 378.660,219.036 379.200,219.315 379.200 C 219.595 379.200,220.083 379.560,220.400 380.000 C 220.717 380.440,221.257 380.800,221.600 380.800 C 221.943 380.800,222.483 381.160,222.800 381.600 C 223.117 382.040,223.697 382.400,224.088 382.400 C 224.480 382.400,224.800 382.580,224.800 382.800 C 224.800 383.020,225.070 383.200,225.400 383.200 C 225.730 383.200,226.000 383.380,226.000 383.600 C 226.000 383.820,226.270 384.000,226.600 384.000 C 226.930 384.000,227.200 384.180,227.200 384.400 C 227.200 384.620,227.571 384.800,228.024 384.800 C 228.477 384.800,228.736 384.980,228.600 385.200 C 228.459 385.428,228.804 385.600,229.400 385.600 C 229.996 385.600,230.341 385.772,230.200 386.000 C 230.064 386.220,230.323 386.400,230.776 386.400 C 231.229 386.400,231.600 386.580,231.600 386.800 C 231.600 387.020,231.960 387.200,232.400 387.200 C 232.840 387.200,233.200 387.380,233.200 387.600 C 233.200 387.820,233.560 388.000,234.000 388.000 C 234.440 388.000,234.800 388.180,234.800 388.400 C 234.800 388.620,235.034 388.800,235.320 388.800 C 236.019 388.800,237.993 389.733,237.997 390.065 C 237.999 390.211,238.719 390.451,239.598 390.600 C 240.477 390.748,241.297 391.034,241.422 391.235 C 241.546 391.436,242.097 391.600,242.647 391.600 C 243.212 391.600,243.540 391.774,243.400 392.000 C 243.264 392.220,243.513 392.400,243.953 392.400 C 244.393 392.400,244.864 392.580,245.000 392.800 C 245.136 393.020,245.676 393.200,246.200 393.200 C 246.724 393.200,247.264 393.380,247.400 393.600 C 247.536 393.820,248.076 394.000,248.600 394.000 C 249.124 394.000,249.664 394.180,249.800 394.400 C 249.936 394.620,250.476 394.800,251.000 394.800 C 251.524 394.800,252.064 394.980,252.200 395.200 C 252.336 395.420,252.987 395.600,253.647 395.600 C 254.307 395.600,254.758 395.744,254.649 395.920 C 254.541 396.096,255.110 396.284,255.914 396.338 C 256.718 396.393,257.471 396.585,257.588 396.767 C 257.796 397.091,259.337 397.420,262.700 397.859 C 263.635 397.981,264.400 398.242,264.400 398.440 C 264.400 398.638,265.264 398.800,266.320 398.800 C 267.376 398.800,268.465 399.025,268.740 399.300 C 269.126 399.686,273.565 399.800,288.200 399.800 C 302.834 399.800,307.274 399.686,307.660 399.300 C 307.935 399.025,309.103 398.800,310.256 398.800 C 311.409 398.800,312.464 398.620,312.600 398.400 C 312.736 398.180,313.557 398.000,314.424 398.000 C 315.291 398.000,316.000 397.820,316.000 397.600 C 316.000 397.380,316.709 397.200,317.576 397.200 C 318.443 397.200,319.264 397.020,319.400 396.800 C 319.536 396.580,320.277 396.400,321.047 396.400 C 321.879 396.400,322.347 396.238,322.200 396.000 C 322.053 395.762,322.521 395.600,323.353 395.600 C 324.123 395.600,324.864 395.420,325.000 395.200 C 325.136 394.980,325.777 394.800,326.424 394.800 C 327.071 394.800,327.600 394.620,327.600 394.400 C 327.600 394.180,327.949 394.000,328.376 394.000 C 328.803 394.000,329.264 393.820,329.400 393.600 C 329.536 393.380,330.087 393.200,330.624 393.200 C 331.161 393.200,331.600 393.020,331.600 392.800 C 331.600 392.580,332.140 392.400,332.800 392.400 C 333.460 392.400,334.000 392.220,334.000 392.000 C 334.000 391.780,334.360 391.600,334.800 391.600 C 335.240 391.600,335.600 391.426,335.600 391.213 C 335.600 390.999,335.847 390.920,336.148 391.036 C 336.450 391.151,336.980 390.962,337.327 390.616 C 337.674 390.269,338.102 390.027,338.279 390.078 C 338.455 390.129,338.981 389.958,339.447 389.699 C 339.913 389.440,340.408 389.342,340.547 389.481 C 340.686 389.620,340.800 389.523,340.800 389.267 C 340.800 389.010,341.083 388.800,341.429 388.800 C 341.774 388.800,342.329 388.528,342.661 388.196 C 342.993 387.864,343.430 387.695,343.632 387.820 C 343.835 387.945,344.000 387.857,344.000 387.624 C 344.000 387.391,344.345 387.200,344.767 387.200 C 345.188 387.200,345.593 387.065,345.667 386.900 C 345.834 386.524,347.964 385.225,348.900 384.929 C 349.285 384.807,349.600 384.548,349.600 384.353 C 349.600 384.159,349.960 384.000,350.400 384.000 C 350.840 384.000,351.200 383.820,351.200 383.600 C 351.200 383.380,351.470 383.200,351.800 383.200 C 352.130 383.200,352.400 383.020,352.400 382.800 C 352.400 382.580,352.670 382.400,353.000 382.400 C 353.330 382.400,353.600 382.220,353.600 382.000 C 353.600 381.780,353.801 381.600,354.047 381.600 C 354.293 381.600,355.075 381.105,355.784 380.500 C 357.627 378.928,358.811 378.183,359.265 378.310 C 359.482 378.370,359.545 378.235,359.406 378.010 C 359.267 377.784,359.394 377.600,359.688 377.600 C 359.983 377.600,360.483 377.240,360.800 376.800 C 361.117 376.360,361.707 376.000,362.112 376.000 C 362.516 376.000,362.736 375.820,362.600 375.600 C 362.464 375.380,362.567 375.200,362.829 375.200 C 363.092 375.200,363.642 374.812,364.053 374.339 C 364.464 373.865,364.800 373.628,364.800 373.811 C 364.800 373.994,365.311 373.572,365.936 372.872 C 366.560 372.172,367.257 371.600,367.485 371.600 C 367.858 371.600,369.550 369.941,377.500 361.781 C 378.875 360.370,380.000 359.097,380.000 358.954 C 380.000 358.810,380.900 357.807,382.000 356.724 C 383.100 355.642,384.000 354.576,384.000 354.356 C 384.000 354.136,384.539 353.381,385.198 352.678 C 385.857 351.975,386.397 351.215,386.398 350.988 C 386.399 350.762,386.760 350.317,387.200 350.000 C 387.640 349.683,388.000 349.227,388.000 348.987 C 388.000 348.747,388.315 348.193,388.700 347.755 C 389.442 346.911,389.594 346.658,391.427 343.200 C 392.069 341.990,392.685 340.910,392.797 340.800 C 392.909 340.690,393.197 340.240,393.438 339.800 C 394.630 337.620,395.026 336.981,395.320 336.764 C 395.496 336.634,395.669 336.147,395.704 335.681 C 395.739 335.215,395.848 334.915,395.947 335.013 C 396.045 335.112,396.564 334.249,397.100 333.096 C 397.636 331.943,398.237 330.687,398.437 330.305 C 398.637 329.923,398.800 329.353,398.800 329.039 C 398.800 328.724,399.025 328.392,399.300 328.300 C 399.668 328.177,399.800 326.670,399.800 322.600 C 399.800 318.528,399.668 317.022,399.300 316.900 C 399.025 316.808,398.800 316.399,398.800 315.990 C 398.800 315.582,398.620 315.136,398.400 315.000 C 398.180 314.864,398.000 314.393,398.000 313.953 C 398.000 313.513,397.820 313.264,397.600 313.400 C 397.380 313.536,397.200 313.287,397.200 312.847 C 397.200 312.407,397.020 311.936,396.800 311.800 C 396.580 311.664,396.400 311.203,396.400 310.776 C 396.400 310.349,396.220 310.000,396.000 310.000 C 395.780 310.000,395.600 309.629,395.600 309.176 C 395.600 308.723,395.450 308.445,395.268 308.558 C 395.085 308.671,394.691 308.142,394.393 307.382 C 394.095 306.622,393.704 306.000,393.525 306.000 C 393.346 306.000,393.200 305.640,393.200 305.200 C 393.200 304.760,393.020 304.400,392.800 304.400 C 392.580 304.400,392.400 304.106,392.400 303.747 C 392.400 303.388,392.028 302.771,391.574 302.377 C 391.119 301.983,390.757 301.512,390.769 301.330 C 390.813 300.647,390.332 299.600,389.973 299.600 C 389.768 299.600,389.600 299.400,389.600 299.155 C 389.600 298.753,388.753 297.520,384.757 292.097 C 384.066 291.160,382.814 289.641,381.973 288.722 C 381.133 287.802,380.553 286.876,380.685 286.663 C 380.816 286.450,380.716 286.405,380.462 286.562 C 380.208 286.719,380.000 286.677,380.000 286.468 C 380.000 286.260,378.477 284.494,376.615 282.545 C 374.754 280.595,372.889 278.640,372.470 278.200 C 371.116 276.777,367.817 274.000,367.480 274.000 C 367.300 274.000,367.247 273.847,367.363 273.660 C 367.478 273.473,367.084 273.068,366.486 272.760 C 365.889 272.452,364.749 271.570,363.953 270.800 C 363.157 270.030,362.300 269.354,362.048 269.298 C 361.795 269.242,361.025 268.657,360.335 267.998 C 359.646 267.339,358.878 266.800,358.629 266.800 C 358.380 266.800,357.917 266.440,357.600 266.000 C 357.283 265.560,356.876 265.200,356.695 265.200 C 356.514 265.200,355.980 264.840,355.508 264.400 C 355.036 263.960,354.413 263.600,354.125 263.600 C 353.836 263.600,353.600 263.441,353.600 263.247 C 353.600 263.052,353.285 262.793,352.900 262.671 C 352.209 262.452,349.988 261.191,349.600 260.797 C 349.080 260.269,345.217 258.400,344.646 258.400 C 344.291 258.400,344.000 258.220,344.000 258.000 C 344.000 257.780,343.640 257.600,343.200 257.600 C 342.760 257.600,342.400 257.420,342.400 257.200 C 342.400 256.980,342.040 256.800,341.600 256.800 C 341.160 256.800,340.799 256.665,340.797 256.500 C 340.793 256.141,338.856 255.200,338.120 255.200 C 337.834 255.200,337.600 255.020,337.600 254.800 C 337.600 254.580,337.150 254.400,336.600 254.400 C 336.050 254.400,335.600 254.220,335.600 254.000 C 335.600 253.780,335.240 253.600,334.800 253.600 C 334.360 253.600,334.000 253.396,334.000 253.146 C 334.000 252.837,333.419 252.771,332.184 252.940 C 330.743 253.138,329.526 252.912,326.284 251.845 C 324.038 251.106,320.490 250.089,318.400 249.585 C 316.176 249.048,314.325 248.363,313.936 247.934 C 313.571 247.530,313.076 247.200,312.836 247.200 C 312.596 247.200,312.400 247.020,312.400 246.800 C 312.400 246.580,311.410 246.400,310.200 246.400 C 308.990 246.400,308.000 246.262,308.000 246.094 C 308.000 245.926,306.877 245.733,305.506 245.665 C 304.134 245.597,302.829 245.395,302.606 245.216 C 302.045 244.767,288.342 244.736,287.600 245.182 M289.600 263.160 C 289.600 263.358,291.965 263.545,294.856 263.576 C 297.747 263.607,300.435 263.805,300.830 264.016 C 301.224 264.227,302.539 264.400,303.750 264.400 C 304.962 264.400,306.064 264.580,306.200 264.800 C 306.336 265.020,307.247 265.200,308.224 265.200 C 309.201 265.200,310.000 265.380,310.000 265.600 C 310.000 265.820,310.720 266.000,311.600 266.000 C 312.480 266.000,313.200 266.180,313.200 266.400 C 313.200 266.620,313.884 266.800,314.720 266.800 C 315.556 266.800,316.419 266.979,316.638 267.198 C 316.856 267.416,317.509 267.635,318.089 267.683 C 318.668 267.730,319.067 267.891,318.975 268.040 C 318.883 268.189,319.346 268.421,320.004 268.555 C 320.662 268.690,321.740 268.910,322.400 269.045 C 323.060 269.180,323.600 269.450,323.600 269.645 C 323.600 269.840,324.050 270.000,324.600 270.000 C 325.150 270.000,325.600 270.180,325.600 270.400 C 325.600 270.620,325.949 270.800,326.376 270.800 C 326.803 270.800,327.250 270.957,327.368 271.148 C 327.486 271.340,328.160 271.612,328.865 271.753 C 329.571 271.894,330.474 272.305,330.874 272.667 C 331.273 273.028,331.600 273.193,331.600 273.032 C 331.600 272.871,332.622 273.293,333.871 273.970 C 335.120 274.646,336.380 275.200,336.671 275.200 C 336.962 275.200,337.200 275.380,337.200 275.600 C 337.200 275.820,337.478 276.000,337.817 276.000 C 338.156 276.000,338.820 276.360,339.292 276.800 C 339.764 277.240,340.387 277.600,340.675 277.600 C 340.964 277.600,341.200 277.780,341.200 278.000 C 341.200 278.220,341.571 278.400,342.024 278.400 C 342.477 278.400,342.736 278.580,342.600 278.800 C 342.464 279.020,342.633 279.200,342.976 279.200 C 343.319 279.200,343.600 279.380,343.600 279.600 C 343.600 279.820,343.787 280.000,344.016 280.000 C 344.523 280.000,346.756 281.538,347.646 282.500 C 348.002 282.885,348.463 283.200,348.669 283.200 C 348.875 283.200,349.729 283.828,350.567 284.596 C 351.405 285.363,352.278 285.875,352.507 285.734 C 352.749 285.584,352.804 285.670,352.638 285.938 C 352.481 286.192,352.558 286.400,352.808 286.400 C 353.058 286.400,353.989 287.134,354.877 288.031 C 355.765 288.928,357.185 290.164,358.032 290.778 C 358.880 291.391,359.459 292.008,359.320 292.147 C 359.181 292.286,359.377 292.400,359.757 292.400 C 360.137 292.400,360.336 292.580,360.200 292.800 C 360.064 293.020,360.244 293.200,360.600 293.200 C 360.956 293.200,361.136 293.380,361.000 293.600 C 360.864 293.820,361.044 294.000,361.400 294.000 C 361.756 294.000,361.935 294.181,361.798 294.403 C 361.661 294.624,361.831 294.914,362.175 295.046 C 362.519 295.178,362.800 295.536,362.800 295.843 C 362.800 296.149,362.935 296.355,363.100 296.300 C 363.265 296.245,363.442 296.338,363.494 296.506 C 363.545 296.674,364.666 297.894,365.984 299.216 C 367.302 300.538,368.391 301.750,368.405 301.910 C 368.419 302.069,368.783 302.606,369.215 303.103 C 369.647 303.600,370.000 304.185,370.000 304.403 C 370.000 304.621,370.180 304.800,370.400 304.800 C 370.620 304.800,370.800 305.027,370.800 305.304 C 370.800 305.581,371.160 306.032,371.600 306.307 C 372.040 306.582,372.400 307.036,372.400 307.315 C 372.400 307.595,372.760 308.083,373.200 308.400 C 373.640 308.717,374.000 309.297,374.000 309.688 C 374.000 310.080,374.135 310.402,374.300 310.404 C 374.465 310.407,375.320 311.802,376.200 313.504 C 377.080 315.207,377.935 316.660,378.100 316.733 C 378.265 316.807,378.400 317.212,378.400 317.633 C 378.400 318.055,378.580 318.400,378.800 318.400 C 379.020 318.400,379.200 318.760,379.200 319.200 C 379.200 319.640,379.380 320.000,379.600 320.000 C 379.820 320.000,380.000 320.360,380.000 320.800 C 380.000 321.240,380.180 321.600,380.400 321.600 C 380.620 321.600,380.800 322.140,380.800 322.800 C 380.800 323.460,380.620 324.000,380.400 324.000 C 380.180 324.000,380.000 324.272,380.000 324.605 C 380.000 325.161,379.278 326.722,378.800 327.200 C 378.199 327.801,375.105 333.600,375.386 333.600 C 375.521 333.600,375.264 333.994,374.816 334.475 C 374.367 334.957,374.000 335.587,374.000 335.875 C 374.000 336.164,373.850 336.400,373.668 336.400 C 373.485 336.400,373.081 336.895,372.770 337.500 C 372.460 338.105,371.889 338.891,371.503 339.247 C 371.116 339.603,370.800 340.098,370.800 340.347 C 370.800 340.596,370.620 340.800,370.400 340.800 C 370.180 340.800,370.000 340.978,370.000 341.197 C 370.000 341.415,369.460 342.109,368.800 342.740 C 368.140 343.371,367.600 344.016,367.600 344.175 C 367.600 344.333,366.880 345.176,366.000 346.047 C 365.120 346.918,364.400 347.815,364.400 348.039 C 364.400 348.264,364.220 348.336,364.000 348.200 C 363.780 348.064,363.600 348.163,363.600 348.419 C 363.600 348.675,363.148 349.240,362.596 349.674 C 362.044 350.109,361.678 350.603,361.783 350.772 C 361.887 350.941,361.535 351.314,361.000 351.600 C 360.465 351.886,360.122 352.273,360.237 352.460 C 360.353 352.647,360.156 352.800,359.800 352.800 C 359.444 352.800,359.264 352.980,359.400 353.200 C 359.536 353.420,359.448 353.600,359.204 353.600 C 358.961 353.600,357.529 354.849,356.024 356.376 C 354.518 357.903,353.176 359.043,353.043 358.909 C 352.909 358.776,352.800 358.887,352.800 359.157 C 352.800 359.427,352.657 359.559,352.483 359.451 C 352.309 359.344,351.340 360.013,350.331 360.940 C 349.322 361.866,347.665 363.052,346.648 363.575 C 345.632 364.098,344.800 364.677,344.800 364.863 C 344.800 365.048,344.519 365.200,344.176 365.200 C 343.833 365.200,343.645 365.350,343.758 365.532 C 343.871 365.715,343.342 366.109,342.582 366.407 C 341.822 366.705,341.200 367.096,341.200 367.275 C 341.200 367.454,340.964 367.600,340.675 367.600 C 340.387 367.600,339.764 367.960,339.292 368.400 C 338.820 368.840,338.156 369.200,337.817 369.200 C 337.478 369.200,337.200 369.380,337.200 369.600 C 337.200 369.820,336.917 370.000,336.571 370.000 C 336.226 370.000,335.671 370.272,335.339 370.604 C 335.007 370.936,334.570 371.105,334.368 370.980 C 334.165 370.855,334.000 370.943,334.000 371.176 C 334.000 371.409,333.640 371.600,333.200 371.600 C 332.760 371.600,332.400 371.780,332.400 372.000 C 332.400 372.220,332.040 372.400,331.600 372.400 C 331.160 372.400,330.799 372.535,330.797 372.700 C 330.793 373.111,328.809 374.000,327.897 374.000 C 327.488 374.000,327.264 374.180,327.400 374.400 C 327.540 374.627,327.204 374.800,326.624 374.800 C 326.061 374.800,325.600 374.988,325.600 375.218 C 325.600 375.447,325.375 375.597,325.100 375.551 C 324.349 375.424,321.618 376.047,321.404 376.394 C 321.301 376.560,320.133 376.937,318.808 377.231 C 317.484 377.525,316.400 377.908,316.400 378.083 C 316.400 378.257,315.871 378.400,315.224 378.400 C 314.577 378.400,313.958 378.544,313.849 378.720 C 313.740 378.896,312.879 379.086,311.936 379.142 C 310.993 379.197,310.126 379.396,310.010 379.584 C 309.894 379.771,308.990 379.978,308.000 380.043 C 307.010 380.108,306.106 380.294,305.991 380.456 C 305.877 380.619,304.654 380.792,303.274 380.842 C 301.894 380.892,300.672 381.083,300.559 381.266 C 300.446 381.450,298.122 381.600,295.395 381.600 C 292.518 381.600,290.015 381.793,289.431 382.059 C 288.724 382.381,288.271 382.392,287.912 382.098 C 287.617 381.855,285.032 381.653,281.802 381.620 C 278.723 381.589,276.032 381.392,275.822 381.182 C 275.612 380.972,274.497 380.800,273.344 380.800 C 272.191 380.800,271.136 380.620,271.000 380.400 C 270.864 380.180,269.863 380.000,268.776 380.000 C 267.689 380.000,266.800 379.820,266.800 379.600 C 266.800 379.380,266.080 379.200,265.200 379.200 C 264.320 379.200,263.600 379.059,263.600 378.887 C 263.600 378.715,263.140 378.536,262.579 378.490 C 262.017 378.443,261.219 378.224,260.805 378.003 C 260.391 377.781,259.591 377.600,259.026 377.600 C 258.462 377.600,258.000 377.420,258.000 377.200 C 258.000 376.980,257.561 376.800,257.024 376.800 C 256.487 376.800,255.936 376.620,255.800 376.400 C 255.664 376.180,255.034 376.000,254.400 376.000 C 253.766 376.000,253.128 375.808,252.983 375.573 C 252.838 375.338,252.473 375.240,252.172 375.355 C 251.872 375.471,251.519 375.393,251.389 375.183 C 251.259 374.972,250.803 374.800,250.376 374.800 C 249.949 374.800,249.600 374.620,249.600 374.400 C 249.600 374.180,249.240 374.000,248.800 374.000 C 248.360 374.000,248.000 373.820,248.000 373.600 C 248.000 373.380,247.651 373.200,247.224 373.200 C 246.797 373.200,246.336 373.020,246.200 372.800 C 246.064 372.580,245.513 372.400,244.976 372.400 C 244.439 372.400,244.000 372.220,244.000 372.000 C 244.000 371.780,243.640 371.600,243.200 371.600 C 242.760 371.600,242.400 371.420,242.400 371.200 C 242.400 370.980,242.130 370.800,241.800 370.800 C 241.470 370.800,241.200 370.659,241.200 370.488 C 241.200 370.316,240.705 369.949,240.100 369.672 C 238.072 368.744,237.200 368.212,237.200 367.905 C 237.200 367.737,236.840 367.600,236.400 367.600 C 235.960 367.600,235.600 367.420,235.600 367.200 C 235.600 366.980,235.330 366.800,235.000 366.800 C 234.670 366.800,234.400 366.620,234.400 366.400 C 234.400 366.180,234.152 366.000,233.849 366.000 C 233.546 366.000,233.071 365.727,232.794 365.393 C 232.517 365.059,231.685 364.498,230.945 364.147 C 230.205 363.796,229.600 363.349,229.600 363.154 C 229.600 362.959,229.396 362.800,229.147 362.800 C 228.898 362.800,228.358 362.412,227.947 361.939 C 227.536 361.465,227.200 361.208,227.200 361.367 C 227.200 361.527,226.946 361.419,226.635 361.129 C 226.324 360.838,225.470 360.150,224.738 359.600 C 224.006 359.050,222.992 358.195,222.485 357.700 C 221.978 357.205,221.480 356.800,221.378 356.800 C 221.015 356.800,212.180 347.780,211.220 346.429 C 210.684 345.676,209.740 344.576,209.123 343.986 C 208.505 343.396,208.000 342.778,208.000 342.612 C 208.000 342.331,207.635 341.847,204.700 338.245 C 204.095 337.502,203.600 336.603,203.600 336.247 C 203.600 335.891,203.420 335.600,203.200 335.600 C 202.980 335.600,202.793 335.375,202.784 335.100 C 202.775 334.825,202.235 333.977,201.584 333.215 C 200.933 332.453,200.400 331.478,200.400 331.048 C 200.400 330.618,200.283 330.384,200.139 330.527 C 199.840 330.827,198.800 328.984,198.800 328.154 C 198.800 327.849,198.654 327.600,198.475 327.600 C 198.296 327.600,197.902 326.970,197.600 326.200 C 197.298 325.430,196.904 324.800,196.725 324.800 C 196.546 324.800,196.400 324.455,196.400 324.033 C 196.400 323.612,196.216 323.205,195.992 323.131 C 195.539 322.980,196.386 320.808,196.900 320.803 C 197.065 320.801,197.200 320.440,197.200 320.000 C 197.200 319.560,197.380 319.200,197.600 319.200 C 197.820 319.200,198.000 318.840,198.000 318.400 C 198.000 317.960,198.180 317.600,198.400 317.600 C 198.620 317.600,198.800 317.322,198.800 316.983 C 198.800 316.644,199.160 315.980,199.600 315.508 C 200.040 315.036,200.400 314.413,200.400 314.125 C 200.400 313.836,200.591 313.600,200.824 313.600 C 201.057 313.600,201.150 313.443,201.032 313.252 C 200.914 313.061,201.263 312.386,201.808 311.752 C 202.353 311.118,202.799 310.397,202.800 310.149 C 202.800 309.901,203.068 309.476,203.396 309.204 C 203.723 308.932,203.893 308.550,203.772 308.355 C 203.651 308.160,203.742 308.000,203.972 308.000 C 204.203 308.000,205.069 306.965,205.896 305.700 C 206.723 304.435,207.535 303.340,207.700 303.267 C 207.865 303.193,208.000 302.954,208.000 302.735 C 208.000 302.516,208.720 301.646,209.600 300.800 C 210.480 299.954,211.200 299.082,211.200 298.861 C 211.200 298.640,212.791 296.871,214.736 294.929 C 219.716 289.959,222.400 287.435,222.400 287.722 C 222.400 287.858,223.106 287.256,223.969 286.384 C 224.831 285.513,225.686 284.796,225.869 284.791 C 226.051 284.786,226.894 284.157,227.742 283.393 C 228.590 282.629,229.412 282.084,229.569 282.181 C 229.726 282.278,230.107 282.007,230.415 281.579 C 230.724 281.150,231.307 280.800,231.712 280.800 C 232.116 280.800,232.336 280.620,232.200 280.400 C 232.064 280.180,232.218 280.000,232.543 280.000 C 232.868 280.000,233.193 279.833,233.267 279.630 C 233.340 279.426,233.670 279.201,234.000 279.130 C 234.330 279.058,234.870 278.727,235.200 278.393 C 235.530 278.059,236.700 277.342,237.800 276.799 C 238.900 276.255,239.890 275.718,240.000 275.605 C 240.445 275.149,242.902 274.000,243.432 274.000 C 243.745 274.000,244.000 273.820,244.000 273.600 C 244.000 273.380,244.272 273.200,244.605 273.200 C 244.938 273.200,245.568 273.020,246.005 272.800 C 246.442 272.580,247.158 272.220,247.595 272.000 C 248.032 271.780,248.662 271.600,248.995 271.600 C 249.328 271.600,249.601 271.465,249.603 271.300 C 249.608 270.853,251.626 270.000,252.680 270.000 C 253.186 270.000,253.600 269.853,253.600 269.672 C 253.600 269.492,254.511 269.096,255.625 268.793 C 256.739 268.490,257.740 268.097,257.849 267.921 C 257.958 267.744,258.566 267.600,259.200 267.600 C 259.834 267.600,260.464 267.420,260.600 267.200 C 260.736 266.980,261.467 266.800,262.224 266.800 C 262.981 266.800,263.600 266.620,263.600 266.400 C 263.600 266.180,264.194 266.000,264.920 266.000 C 265.646 266.000,266.411 265.837,266.620 265.639 C 266.829 265.440,267.810 265.177,268.800 265.054 C 273.635 264.452,275.437 264.159,275.833 263.908 C 276.072 263.758,278.817 263.610,281.934 263.578 C 285.051 263.547,287.702 263.359,287.824 263.161 C 288.114 262.692,289.600 262.691,289.600 263.160 M280.200 279.600 C 280.064 279.820,279.254 280.000,278.400 280.000 C 277.546 280.000,276.736 280.180,276.600 280.400 C 276.464 280.620,275.823 280.800,275.176 280.800 C 274.529 280.800,274.000 280.980,274.000 281.200 C 274.000 281.420,273.719 281.600,273.375 281.600 C 272.534 281.600,267.802 283.872,265.728 285.272 C 264.808 285.892,263.897 286.400,263.703 286.400 C 263.509 286.400,262.832 286.940,262.200 287.600 C 261.568 288.260,260.803 288.800,260.502 288.800 C 260.200 288.800,260.064 288.980,260.200 289.200 C 260.336 289.420,260.253 289.600,260.015 289.600 C 259.590 289.600,255.200 293.785,255.200 294.190 C 255.200 294.305,254.480 295.163,253.600 296.097 C 252.720 297.031,252.000 298.022,252.000 298.298 C 252.000 298.574,251.820 298.800,251.600 298.800 C 251.380 298.800,251.200 299.160,251.200 299.600 C 251.200 300.040,251.020 300.400,250.800 300.400 C 250.580 300.400,250.400 300.681,250.400 301.024 C 250.400 301.367,250.220 301.536,250.000 301.400 C 249.773 301.260,249.600 301.596,249.600 302.176 C 249.600 302.739,249.465 303.201,249.300 303.203 C 248.939 303.207,248.000 305.145,248.000 305.885 C 248.000 306.174,247.820 306.768,247.600 307.205 C 247.380 307.642,247.020 308.358,246.800 308.795 C 246.580 309.232,246.400 309.941,246.400 310.371 C 246.400 310.801,246.220 311.264,246.000 311.400 C 245.780 311.536,245.600 312.436,245.600 313.400 C 245.600 314.364,245.413 315.268,245.185 315.409 C 244.664 315.731,244.710 329.497,245.234 329.821 C 245.435 329.945,245.600 330.836,245.600 331.800 C 245.600 332.764,245.780 333.664,246.000 333.800 C 246.220 333.936,246.400 334.577,246.400 335.224 C 246.400 335.871,246.580 336.400,246.800 336.400 C 247.020 336.400,247.200 336.726,247.200 337.125 C 247.200 337.910,248.712 341.274,249.211 341.600 C 249.380 341.710,249.581 342.250,249.659 342.800 C 249.736 343.350,250.115 344.091,250.500 344.447 C 250.885 344.803,251.200 345.388,251.200 345.747 C 251.200 346.106,251.380 346.400,251.600 346.400 C 251.820 346.400,252.001 346.625,252.002 346.900 C 252.003 347.175,252.543 347.975,253.202 348.678 C 253.861 349.381,254.400 350.157,254.400 350.402 C 254.400 350.647,254.564 350.746,254.765 350.621 C 254.966 350.497,255.360 350.912,255.639 351.544 C 255.919 352.176,256.654 353.032,257.273 353.446 C 257.891 353.861,258.406 354.380,258.416 354.600 C 258.438 355.078,262.030 357.905,262.836 358.079 C 263.146 358.145,263.691 358.515,264.047 358.900 C 264.403 359.285,264.898 359.600,265.147 359.600 C 265.396 359.600,265.600 359.780,265.600 360.000 C 265.600 360.220,265.870 360.400,266.200 360.400 C 266.530 360.400,266.800 360.580,266.800 360.800 C 266.800 361.020,267.149 361.200,267.576 361.200 C 268.003 361.200,268.464 361.380,268.600 361.600 C 268.736 361.820,269.207 362.000,269.647 362.000 C 270.087 362.000,270.336 362.180,270.200 362.400 C 270.064 362.620,270.313 362.800,270.753 362.800 C 271.193 362.800,271.664 362.980,271.800 363.200 C 271.936 363.420,272.487 363.600,273.024 363.600 C 273.561 363.600,274.000 363.780,274.000 364.000 C 274.000 364.220,274.529 364.400,275.176 364.400 C 275.823 364.400,276.464 364.580,276.600 364.800 C 276.736 365.020,277.657 365.200,278.647 365.200 C 279.745 365.200,280.351 365.356,280.200 365.600 C 280.038 365.862,282.855 366.000,288.353 366.000 C 293.521 366.000,296.848 365.846,297.000 365.600 C 297.136 365.380,297.957 365.200,298.824 365.200 C 299.691 365.200,300.400 365.020,300.400 364.800 C 300.400 364.580,300.839 364.400,301.376 364.400 C 301.913 364.400,302.464 364.220,302.600 364.000 C 302.736 363.780,303.377 363.600,304.024 363.600 C 304.671 363.600,305.200 363.420,305.200 363.200 C 305.200 362.980,305.571 362.800,306.024 362.800 C 306.477 362.800,306.736 362.620,306.600 362.400 C 306.464 362.180,306.598 362.000,306.897 362.000 C 307.651 362.000,309.593 361.065,309.597 360.700 C 309.599 360.535,309.883 360.400,310.229 360.400 C 310.574 360.400,311.129 360.128,311.461 359.796 C 311.793 359.464,312.258 359.312,312.494 359.458 C 312.749 359.615,312.807 359.536,312.638 359.262 C 312.469 358.988,312.607 358.800,312.976 358.800 C 313.319 358.800,313.600 358.661,313.600 358.491 C 313.600 358.321,314.265 357.826,315.079 357.391 C 316.535 356.612,321.200 352.136,321.200 351.517 C 321.200 351.343,321.425 351.198,321.700 351.197 C 322.161 351.193,325.200 346.899,325.200 346.251 C 325.200 346.095,325.560 345.580,326.000 345.108 C 326.440 344.636,326.800 344.013,326.800 343.725 C 326.800 343.436,326.980 343.200,327.200 343.200 C 327.420 343.200,327.600 342.739,327.600 342.176 C 327.600 341.596,327.773 341.260,328.000 341.400 C 328.227 341.540,328.400 341.204,328.400 340.624 C 328.400 340.061,328.547 339.600,328.728 339.600 C 328.908 339.600,329.304 338.689,329.607 337.575 C 329.910 336.461,330.303 335.460,330.479 335.351 C 330.656 335.242,330.800 334.533,330.800 333.776 C 330.800 333.019,330.980 332.400,331.200 332.400 C 331.428 332.400,331.600 331.208,331.600 329.624 C 331.600 328.097,331.780 326.736,332.000 326.600 C 332.220 326.464,332.400 324.733,332.400 322.753 C 332.400 320.455,332.255 319.242,332.000 319.400 C 331.748 319.556,331.600 318.595,331.600 316.797 C 331.600 315.230,331.438 313.644,331.241 313.274 C 331.043 312.903,330.819 312.060,330.742 311.400 C 330.666 310.740,330.468 310.100,330.303 309.978 C 330.139 309.855,329.964 309.270,329.915 308.678 C 329.866 308.085,329.685 307.600,329.513 307.600 C 329.341 307.600,329.200 307.351,329.200 307.046 C 329.200 306.741,328.939 305.989,328.620 305.374 C 328.302 304.760,328.150 304.082,328.282 303.867 C 328.416 303.650,328.318 303.604,328.062 303.762 C 327.759 303.949,327.600 303.695,327.600 303.024 C 327.600 302.461,327.420 302.000,327.200 302.000 C 326.980 302.000,326.800 301.764,326.800 301.475 C 326.800 301.187,326.485 300.602,326.100 300.175 C 325.715 299.749,325.145 298.905,324.832 298.300 C 324.520 297.695,324.105 297.200,323.909 297.200 C 323.713 297.200,323.657 297.031,323.785 296.825 C 323.912 296.618,323.698 296.264,323.308 296.037 C 322.919 295.810,322.744 295.619,322.919 295.612 C 323.420 295.593,314.761 287.200,314.241 287.200 C 313.986 287.200,313.517 286.840,313.200 286.400 C 312.883 285.960,312.303 285.600,311.912 285.600 C 311.520 285.600,311.200 285.420,311.200 285.200 C 311.200 284.980,310.840 284.800,310.400 284.800 C 309.960 284.800,309.600 284.654,309.600 284.475 C 309.600 284.296,308.970 283.902,308.200 283.600 C 307.430 283.298,306.800 282.904,306.800 282.725 C 306.800 282.546,306.440 282.400,306.000 282.400 C 305.560 282.400,305.200 282.220,305.200 282.000 C 305.200 281.780,304.660 281.600,304.000 281.600 C 303.340 281.600,302.800 281.420,302.800 281.200 C 302.800 280.980,302.159 280.800,301.376 280.800 C 300.593 280.800,300.046 280.649,300.160 280.464 C 300.274 280.280,299.713 280.104,298.913 280.074 C 298.114 280.044,297.275 279.835,297.050 279.610 C 296.502 279.062,280.538 279.053,280.200 279.600 M294.180 298.434 C 294.389 298.635,295.064 298.800,295.680 298.800 C 296.296 298.800,296.800 298.980,296.800 299.200 C 296.800 299.420,297.250 299.600,297.800 299.600 C 298.350 299.600,298.800 299.780,298.800 300.000 C 298.800 300.220,299.120 300.400,299.512 300.400 C 299.903 300.400,300.476 300.750,300.785 301.179 C 301.093 301.607,301.481 301.873,301.647 301.771 C 301.813 301.669,302.402 302.038,302.956 302.592 C 303.510 303.147,304.055 303.600,304.167 303.600 C 304.441 303.600,309.005 308.121,309.114 308.500 C 309.161 308.665,309.200 308.952,309.200 309.139 C 309.200 309.325,309.556 309.888,309.992 310.390 C 310.427 310.892,310.687 311.460,310.568 311.652 C 310.450 311.843,310.543 312.000,310.776 312.000 C 311.009 312.000,311.200 312.272,311.200 312.605 C 311.200 312.938,311.408 313.613,311.662 314.105 C 312.659 316.034,312.762 316.385,312.854 318.162 C 312.907 319.173,313.096 320.000,313.275 320.000 C 313.746 320.000,313.675 325.106,313.200 325.400 C 312.980 325.536,312.800 326.447,312.800 327.424 C 312.800 328.401,312.620 329.200,312.400 329.200 C 312.180 329.200,312.000 329.740,312.000 330.400 C 312.000 331.060,311.820 331.600,311.600 331.600 C 311.380 331.600,311.200 331.960,311.200 332.400 C 311.200 332.840,311.020 333.200,310.800 333.200 C 310.580 333.200,310.400 333.545,310.400 333.967 C 310.400 334.388,310.233 334.793,310.030 334.867 C 309.826 334.940,309.601 335.266,309.530 335.590 C 309.458 335.915,309.220 336.395,309.000 336.656 C 307.598 338.321,306.615 339.801,306.710 340.105 C 306.770 340.300,306.654 340.357,306.452 340.232 C 306.249 340.107,305.981 340.274,305.854 340.602 C 305.728 340.931,305.389 341.200,305.101 341.200 C 304.813 341.200,304.324 341.550,304.015 341.979 C 303.707 342.407,303.307 342.666,303.127 342.555 C 302.947 342.444,302.800 342.548,302.800 342.786 C 302.800 343.025,302.395 343.398,301.900 343.616 C 301.405 343.834,300.460 344.356,299.800 344.777 C 299.140 345.197,298.206 345.555,297.724 345.571 C 297.242 345.587,296.736 345.780,296.600 346.000 C 296.464 346.220,295.949 346.400,295.456 346.400 C 294.963 346.400,294.370 346.590,294.138 346.822 C 293.080 347.880,280.000 347.021,280.000 345.894 C 280.000 345.706,279.835 345.655,279.632 345.780 C 279.430 345.905,278.993 345.736,278.661 345.404 C 278.329 345.072,277.774 344.800,277.429 344.800 C 277.083 344.800,276.800 344.609,276.800 344.376 C 276.800 344.143,276.635 344.055,276.432 344.180 C 276.230 344.305,275.801 344.144,275.480 343.823 C 275.158 343.501,274.794 343.339,274.670 343.463 C 274.546 343.587,272.985 342.209,271.200 340.400 C 269.415 338.591,268.052 337.015,268.170 336.896 C 268.289 336.778,268.074 336.393,267.693 336.041 C 266.779 335.196,265.200 332.120,265.200 331.186 C 265.200 330.780,265.020 330.336,264.800 330.200 C 264.580 330.064,264.400 329.423,264.400 328.776 C 264.400 328.129,264.220 327.600,264.000 327.600 C 263.755 327.600,263.600 325.667,263.600 322.600 C 263.600 319.533,263.755 317.600,264.000 317.600 C 264.220 317.600,264.400 317.060,264.400 316.400 C 264.400 315.740,264.580 315.200,264.800 315.200 C 265.020 315.200,265.200 314.660,265.200 314.000 C 265.200 313.340,265.380 312.800,265.600 312.800 C 265.820 312.800,266.000 312.440,266.000 312.000 C 266.000 311.560,266.180 311.200,266.400 311.200 C 266.620 311.200,266.800 310.880,266.800 310.488 C 266.800 310.097,267.160 309.517,267.600 309.200 C 268.040 308.883,268.400 308.425,268.400 308.182 C 268.400 307.790,269.275 306.859,272.613 303.700 C 273.136 303.205,273.712 302.800,273.894 302.800 C 274.075 302.800,274.483 302.440,274.800 302.000 C 275.117 301.560,275.697 301.200,276.088 301.200 C 276.480 301.200,276.800 301.020,276.800 300.800 C 276.800 300.580,277.160 300.400,277.600 300.400 C 278.040 300.400,278.400 300.220,278.400 300.000 C 278.400 299.780,278.760 299.600,279.200 299.600 C 279.640 299.600,280.000 299.420,280.000 299.200 C 280.000 298.980,280.540 298.800,281.200 298.800 C 281.860 298.800,282.400 298.627,282.400 298.416 C 282.400 297.672,293.406 297.688,294.180 298.434 " stroke="none" fill="#33cbcb" fill-rule="evenodd"></path><path id="path1" d="M3.847 0.285 C 3.433 0.392,2.443 1.130,1.647 1.926 L 0.200 3.373 0.086 159.787 C 0.024 245.814,0.075 316.773,0.199 317.473 C 0.440 318.821,2.891 321.600,3.840 321.600 C 4.148 321.600,4.400 321.780,4.400 322.000 C 4.400 322.265,33.323 322.400,90.369 322.400 L 176.338 322.400 176.797 320.900 C 177.508 318.574,177.669 318.216,181.091 311.320 C 182.859 307.756,184.207 304.741,184.086 304.620 C 183.966 304.499,146.457 304.400,100.733 304.400 L 17.600 304.400 17.600 195.400 L 17.600 86.400 165.600 86.400 L 313.600 86.400 313.600 166.786 C 313.600 243.564,313.632 247.189,314.315 247.554 C 314.708 247.765,316.577 248.311,318.468 248.768 C 321.465 249.493,328.855 251.771,330.900 252.601 C 331.566 252.872,331.600 246.811,331.600 128.643 C 331.600 46.081,331.466 4.400,331.200 4.400 C 330.980 4.400,330.800 4.124,330.800 3.787 C 330.800 3.449,330.131 2.504,329.313 1.687 L 327.827 0.200 166.213 0.145 C 77.326 0.115,4.261 0.178,3.847 0.285 M313.600 43.000 L 313.600 68.400 165.600 68.400 L 17.600 68.400 17.600 43.000 L 17.600 17.600 165.600 17.600 L 313.600 17.600 313.600 43.000 M42.800 34.400 C 42.800 34.620,42.524 34.800,42.187 34.800 C 41.849 34.800,40.949 35.424,40.187 36.187 C 39.424 36.949,38.800 37.849,38.800 38.187 C 38.800 38.524,38.620 38.800,38.400 38.800 C 38.159 38.800,38.000 40.467,38.000 43.000 C 38.000 45.533,38.159 47.200,38.400 47.200 C 38.620 47.200,38.800 47.476,38.800 47.813 C 38.800 48.609,41.391 51.200,42.187 51.200 C 42.524 51.200,42.800 51.380,42.800 51.600 C 42.800 51.841,44.467 52.000,47.000 52.000 C 49.533 52.000,51.200 51.841,51.200 51.600 C 51.200 51.380,51.425 51.200,51.700 51.200 C 53.110 51.198,56.000 47.205,56.000 45.257 C 56.000 44.654,56.211 43.949,56.469 43.691 C 56.828 43.332,56.828 42.980,56.469 42.192 C 56.211 41.626,56.000 40.631,56.000 39.981 C 56.000 39.332,55.820 38.800,55.600 38.800 C 55.380 38.800,55.200 38.522,55.200 38.182 C 55.200 37.386,53.645 35.836,51.814 34.808 C 50.234 33.920,42.800 33.584,42.800 34.400 M76.627 34.524 C 75.240 35.378,73.200 37.559,73.200 38.187 C 73.200 38.524,73.020 38.800,72.800 38.800 C 72.559 38.800,72.400 40.467,72.400 43.000 C 72.400 45.533,72.559 47.200,72.800 47.200 C 73.020 47.200,73.200 47.476,73.200 47.813 C 73.200 48.477,75.314 50.691,76.720 51.500 C 78.211 52.357,84.792 52.145,86.000 51.200 C 86.550 50.770,87.148 50.414,87.329 50.409 C 87.820 50.396,88.517 49.583,89.566 47.800 C 91.965 43.723,89.587 34.804,86.100 34.800 C 85.825 34.800,85.600 34.620,85.600 34.400 C 85.600 33.821,77.588 33.931,76.627 34.524 M111.027 34.524 C 109.640 35.378,107.600 37.559,107.600 38.187 C 107.600 38.524,107.420 38.800,107.200 38.800 C 106.959 38.800,106.800 40.467,106.800 43.000 C 106.800 45.533,106.959 47.200,107.200 47.200 C 107.420 47.200,107.600 47.476,107.600 47.813 C 107.600 48.477,109.714 50.691,111.120 51.500 C 113.550 52.898,120.565 51.892,122.603 49.854 C 125.985 46.472,125.242 35.600,121.629 35.600 C 121.393 35.600,121.199 35.465,121.197 35.300 C 121.184 34.099,112.760 33.456,111.027 34.524 M162.492 34.800 C 162.020 35.240,161.523 35.600,161.388 35.600 C 160.942 35.600,160.081 36.652,159.235 38.231 C 157.364 41.720,158.900 50.400,161.388 50.400 C 161.523 50.400,162.020 50.760,162.492 51.200 C 163.565 52.200,287.153 52.493,288.880 51.500 C 290.286 50.691,292.400 48.477,292.400 47.813 C 292.400 47.476,292.580 47.200,292.800 47.200 C 293.041 47.200,293.200 45.533,293.200 43.000 C 293.200 40.467,293.041 38.800,292.800 38.800 C 292.580 38.800,292.400 38.524,292.400 38.187 C 292.400 37.523,290.286 35.309,288.880 34.500 C 287.153 33.507,163.565 33.800,162.492 34.800 M47.254 112.846 C 45.574 113.831,45.195 114.223,44.088 116.123 L 43.200 117.646 43.200 195.211 C 43.200 272.281,43.205 272.785,44.008 274.214 C 45.036 276.045,46.586 277.600,47.382 277.600 C 47.722 277.600,48.000 277.780,48.000 278.000 C 48.000 278.265,74.461 278.400,126.582 278.400 L 205.164 278.400 206.082 277.499 C 206.587 277.004,208.170 275.609,209.600 274.399 C 211.030 273.190,212.290 272.097,212.400 271.972 C 213.663 270.530,226.753 261.600,227.604 261.600 C 227.822 261.600,228.000 261.330,228.000 261.000 C 228.000 260.469,218.467 260.400,144.600 260.400 L 61.200 260.400 61.200 195.200 L 61.200 130.000 165.600 130.000 L 270.000 130.000 270.000 188.051 L 270.000 246.103 273.300 245.818 C 275.115 245.662,279.120 245.414,282.200 245.267 L 287.800 245.000 287.901 180.900 C 287.969 138.236,287.868 116.800,287.601 116.800 C 287.381 116.800,287.200 116.548,287.200 116.240 C 287.200 115.512,284.488 112.800,283.760 112.800 C 283.452 112.800,283.200 112.620,283.200 112.400 C 283.200 111.502,48.791 111.945,47.254 112.846 " stroke="none" fill="#040404" fill-rule="evenodd"></path><path id="path2" d="M276.800 246.000 L 274.200 246.262 276.400 246.291 C 277.610 246.308,279.590 246.184,280.800 246.017 C 283.748 245.609,280.801 245.597,276.800 246.000 M270.393 246.947 C 270.586 247.144,271.401 247.121,272.267 246.895 L 273.800 246.495 271.925 246.547 C 270.869 246.577,270.200 246.752,270.393 246.947 M314.000 248.051 C 314.330 248.385,315.590 248.885,316.800 249.163 C 318.010 249.441,319.360 249.752,319.800 249.853 C 320.410 249.994,320.457 249.954,320.000 249.684 C 319.670 249.489,318.320 249.090,317.000 248.798 C 315.680 248.505,314.330 248.081,314.000 247.855 C 313.467 247.489,313.467 247.511,314.000 248.051 M320.833 250.144 C 320.925 250.223,321.540 250.408,322.200 250.556 C 323.076 250.752,323.238 250.715,322.800 250.418 C 322.260 250.053,320.432 249.798,320.833 250.144 M323.633 250.944 C 323.725 251.023,324.340 251.208,325.000 251.356 C 325.876 251.552,326.038 251.515,325.600 251.218 C 325.060 250.853,323.232 250.598,323.633 250.944 M326.800 252.000 C 327.130 252.213,327.670 252.388,328.000 252.388 C 328.533 252.388,328.533 252.345,328.000 252.000 C 327.670 251.787,327.130 251.612,326.800 251.612 C 326.267 251.612,326.267 251.655,326.800 252.000 M228.659 260.713 C 228.733 260.830,228.593 261.168,228.348 261.463 C 228.043 261.830,228.037 262.000,228.327 262.000 C 228.951 262.000,229.352 261.181,228.908 260.815 C 228.697 260.642,228.585 260.596,228.659 260.713 M225.896 262.950 C 223.975 264.131,223.438 264.689,225.000 263.881 C 226.254 263.233,227.945 262.026,227.600 262.025 C 227.490 262.025,226.723 262.441,225.896 262.950 M221.600 265.652 C 220.610 266.327,219.530 267.153,219.200 267.487 C 218.870 267.821,219.725 267.337,221.100 266.412 C 222.475 265.487,223.600 264.656,223.600 264.565 C 223.600 264.303,223.499 264.358,221.600 265.652 M216.785 269.229 L 215.400 270.458 216.900 269.381 C 218.226 268.430,218.657 268.000,218.285 268.000 C 218.222 268.000,217.547 268.553,216.785 269.229 M213.585 271.632 L 212.200 272.863 213.488 272.013 C 214.630 271.259,215.493 270.400,215.108 270.400 C 215.032 270.400,214.347 270.954,213.585 271.632 M210.267 274.267 C 209.425 275.038,208.797 275.731,208.872 275.805 C 208.947 275.880,209.706 275.320,210.560 274.560 C 211.414 273.800,212.041 273.108,211.955 273.021 C 211.868 272.935,211.109 273.495,210.267 274.267 M206.975 277.300 L 205.800 278.600 207.100 277.425 C 207.815 276.779,208.400 276.194,208.400 276.125 C 208.400 275.816,208.070 276.088,206.975 277.300 M183.900 306.500 C 183.301 307.624,182.869 308.602,182.940 308.674 C 183.012 308.745,183.568 307.891,184.175 306.775 C 184.782 305.659,185.214 304.681,185.135 304.601 C 185.055 304.522,184.499 305.376,183.900 306.500 M181.076 311.900 C 179.549 315.038,179.156 316.000,179.403 316.000 C 179.500 316.000,179.967 315.145,180.439 314.100 C 180.912 313.055,181.640 311.525,182.057 310.700 C 182.475 309.875,182.720 309.200,182.603 309.200 C 182.486 309.200,181.798 310.415,181.076 311.900 M178.800 316.484 C 178.800 316.604,178.528 317.354,178.195 318.151 C 177.862 318.948,177.679 319.600,177.789 319.600 C 178.106 319.600,179.233 316.700,179.005 316.472 C 178.892 316.359,178.800 316.365,178.800 316.484 " stroke="none" fill="#248c8c" fill-rule="evenodd"></path><path id="path3" d="M276.200 245.617 C 275.468 245.814,276.169 245.853,278.000 245.718 C 279.650 245.596,281.075 245.429,281.167 245.348 C 281.477 245.072,277.408 245.293,276.200 245.617 M270.705 246.283 C 271.202 246.379,271.922 246.375,272.305 246.275 C 272.687 246.175,272.280 246.096,271.400 246.101 C 270.520 246.105,270.207 246.187,270.705 246.283 M314.176 247.778 C 314.604 248.120,315.234 248.386,315.576 248.368 C 316.115 248.341,316.118 248.307,315.600 248.114 C 315.270 247.992,314.640 247.726,314.200 247.524 C 313.413 247.162,313.412 247.166,314.176 247.778 M320.600 249.600 C 321.040 249.789,321.670 249.944,322.000 249.944 C 322.378 249.944,322.304 249.817,321.800 249.600 C 321.360 249.411,320.730 249.256,320.400 249.256 C 320.022 249.256,320.096 249.383,320.600 249.600 M220.096 266.207 C 218.283 267.421,216.800 268.506,216.800 268.619 C 216.800 268.818,222.614 265.042,223.380 264.345 C 224.298 263.511,223.157 264.158,220.096 266.207 M214.044 270.604 C 213.078 271.372,212.448 271.993,212.644 271.985 C 213.016 271.969,216.349 269.213,216.000 269.210 C 215.890 269.209,215.010 269.836,214.044 270.604 M208.268 275.446 C 207.425 276.229,206.807 276.940,206.894 277.027 C 206.981 277.114,207.752 276.469,208.607 275.593 C 210.534 273.619,210.329 273.530,208.268 275.446 " stroke="none" fill="#144e4e" fill-rule="evenodd"></path><path id="path4" d="M282.500 245.491 C 283.325 245.578,284.675 245.578,285.500 245.491 C 286.325 245.405,285.650 245.334,284.000 245.334 C 282.350 245.334,281.675 245.405,282.500 245.491 " stroke="none" fill="#1c6464" fill-rule="evenodd"></path></g></svg>